<?xml version="1.0" encoding="UTF-8" standalone="no"?><!DOCTYPE svg PUBLIC "-//W3C//DTD SVG 1.1//EN" "http://www.w3.org/Graphics/SVG/1.1/DTD/svg11.dtd"><svg width="100%" height="100%" viewBox="0 0 3840 2161" version="1.1" xmlns="http://www.w3.org/2000/svg" xmlns:xlink="http://www.w3.org/1999/xlink" xml:space="preserve" xmlns:serif="http://www.serif.com/" style="fill-rule:evenodd;clip-rule:evenodd;stroke-linejoin:round;stroke-miterlimit:2;"><path id="BW1" d="M-0.001,0.089l-0,2160l3840,-0l-0,-2160l-3840,-0Z" style="fill:none;"/><g id="BW11" serif:id="BW1"><g id="Logo"><g id="The-Braided-Star-v2" serif:id="The Braided Star v2"><path d="M1918.03,788.538c0.084,-1.025 0.94,-1.814 1.969,-1.814c1.028,0 1.884,0.789 1.968,1.814c12.207,121.659 80.253,226.958 178.097,289.853c0.577,0.369 0.925,1.007 0.922,1.692c-0.003,0.684 -0.356,1.32 -0.935,1.684c-64.024,39.877 -185.142,96.802 -216.589,164.138c-23.441,50.193 36.537,106.171 36.537,165.184c-0,-59.013 59.978,-114.991 36.537,-165.184c-31.447,-67.336 -152.565,-124.261 -216.589,-164.137c-0.58,-0.364 -0.934,-1 -0.937,-1.685c-0.002,-0.685 0.346,-1.324 0.923,-1.693c97.844,-62.894 165.891,-168.193 178.097,-289.852Z" style="fill:#efece3;"/></g></g></g></svg>